<svg width="98" height="14" viewBox="0 0 98 14" fill="none" xmlns="http://www.w3.org/2000/svg">
<g clip-path="url(#clip0_273_58)">
<rect width="98" height="14" fill="#141414"/>
<g filter="url(#filter0_d_273_58)">
<path d="M12.3069 8.12146L9.35468 1.3591L8.71097 0.91285L7.95628 0.672563L6.93522 0.397949L5.73659 0.91285L4.9375 1.3591L7.95628 8.12146H12.3069Z" fill="url(#paint0_linear_273_58)"/>
</g>
<g filter="url(#filter1_d_273_58)">
<path d="M1.71169 5.86045L4.66387 12.6387L5.30758 13.0859L6.06228 13.3268L7.08333 13.6021L8.28197 13.0859L9.08105 12.6387L6.06228 5.86045L1.71169 5.86045Z" fill="url(#paint1_linear_273_58)"/>
</g>
<path d="M4.77909 1.4476L0.195951 8.07234L4.77909 8.12145L8.09213 1.4476C8.32475 0.764855 9.05256 1.16312 9.38739 1.4476C7.95644 -1.17414 5.71896 0.355207 4.77909 1.4476Z" fill="white"/>
<path d="M9.22091 12.5524L13.804 5.92766L9.22091 5.87855L5.90787 12.5524C5.67525 13.2351 4.94744 12.8369 4.61261 12.5524C6.04356 15.1741 8.28104 13.6448 9.22091 12.5524Z" fill="white"/>
<path d="M21.438 11.096C21.242 11.096 21.05 11.074 20.862 11.03C20.674 10.986 20.504 10.908 20.352 10.796C20.204 10.68 20.086 10.518 19.998 10.31C19.91 10.098 19.866 9.826 19.866 9.494C19.866 9.41 19.866 9.324 19.866 9.236C19.866 9.144 19.866 9.048 19.866 8.948V5.528H18.312V4.628H19.308C19.444 4.628 19.55 4.624 19.626 4.616C19.702 4.604 19.756 4.578 19.788 4.538C19.824 4.494 19.846 4.428 19.854 4.34C19.862 4.248 19.866 4.122 19.866 3.962V2.516H20.892V4.628H22.884V5.528H20.892V8.618C20.892 8.706 20.892 8.792 20.892 8.876C20.892 8.96 20.892 9.038 20.892 9.11C20.892 9.45 20.932 9.716 21.012 9.908C21.096 10.1 21.282 10.196 21.57 10.196C21.686 10.196 21.796 10.186 21.9 10.166C22.004 10.146 22.082 10.126 22.134 10.106V10.994C22.066 11.018 21.97 11.04 21.846 11.06C21.726 11.084 21.59 11.096 21.438 11.096ZM28.3974 11V8.63C28.3974 8.518 28.3974 8.386 28.3974 8.234C28.3974 8.078 28.3974 7.922 28.3974 7.766C28.3974 7.606 28.3974 7.47 28.3974 7.358C28.3974 6.746 28.2654 6.284 28.0014 5.972C27.7414 5.66 27.3274 5.504 26.7594 5.504C26.3794 5.504 26.0454 5.578 25.7574 5.726C25.4734 5.874 25.2514 6.076 25.0914 6.332C24.9314 6.588 24.8514 6.878 24.8514 7.202L24.2034 7.004C24.2034 6.548 24.3214 6.134 24.5574 5.762C24.7974 5.386 25.1234 5.088 25.5354 4.868C25.9514 4.644 26.4214 4.532 26.9454 4.532C27.7094 4.532 28.3114 4.762 28.7514 5.222C29.1954 5.682 29.4174 6.318 29.4174 7.13C29.4174 7.342 29.4174 7.586 29.4174 7.862C29.4174 8.138 29.4174 8.428 29.4174 8.732V11H28.3974ZM23.8314 11V1.622H24.8514V11H23.8314ZM31.1608 8.222V7.31H36.0868L35.9068 7.61C35.9068 7.586 35.9068 7.564 35.9068 7.544C35.9068 7.52 35.9068 7.498 35.9068 7.478C35.9068 7.11 35.8288 6.774 35.6728 6.47C35.5208 6.162 35.2928 5.916 34.9888 5.732C34.6848 5.548 34.3088 5.456 33.8608 5.456C33.4088 5.456 33.0108 5.552 32.6668 5.744C32.3228 5.936 32.0548 6.208 31.8628 6.56C31.6708 6.908 31.5748 7.324 31.5748 7.808C31.5748 8.3 31.6668 8.724 31.8508 9.08C32.0388 9.436 32.3048 9.71 32.6488 9.902C32.9928 10.094 33.4008 10.19 33.8728 10.19C34.2088 10.19 34.5008 10.156 34.7488 10.088C34.9968 10.016 35.2008 9.922 35.3608 9.806C35.5248 9.686 35.6488 9.556 35.7328 9.416C35.8168 9.276 35.8668 9.136 35.8828 8.996H36.9028C36.8828 9.252 36.8028 9.506 36.6628 9.758C36.5228 10.01 36.3248 10.24 36.0688 10.448C35.8128 10.652 35.4988 10.816 35.1268 10.94C34.7548 11.064 34.3268 11.126 33.8428 11.126C33.2028 11.126 32.6388 10.986 32.1508 10.706C31.6628 10.426 31.2788 10.038 30.9988 9.542C30.7228 9.046 30.5848 8.476 30.5848 7.832C30.5848 7.18 30.7248 6.608 31.0048 6.116C31.2848 5.62 31.6708 5.232 32.1628 4.952C32.6548 4.672 33.2168 4.532 33.8488 4.532C34.4928 4.532 35.0508 4.672 35.5228 4.952C35.9948 5.232 36.3588 5.616 36.6148 6.104C36.8708 6.588 36.9988 7.14 36.9988 7.76C36.9988 7.824 36.9968 7.908 36.9928 8.012C36.9888 8.116 36.9828 8.186 36.9748 8.222H31.1608ZM43.1828 11L41.4008 4.628H42.3068L43.9928 10.55H43.8068L44.9228 4.628H45.9848L44.6108 11H43.1828ZM38.8748 11L37.4888 4.628H38.5508L39.6788 10.55H39.4928L41.1608 4.628H42.0668L40.3088 11H38.8748ZM49.0126 11.12C48.5286 11.12 48.1046 11.044 47.7406 10.892C47.3806 10.74 47.1006 10.522 46.9006 10.238C46.7006 9.95 46.6006 9.606 46.6006 9.206C46.6006 8.79 46.7086 8.444 46.9246 8.168C47.1406 7.888 47.4446 7.67 47.8366 7.514C48.2286 7.358 48.6846 7.254 49.2046 7.202C49.9886 7.122 50.5466 7.044 50.8786 6.968C51.2106 6.888 51.3766 6.76 51.3766 6.584C51.3766 6.58 51.3766 6.578 51.3766 6.578C51.3766 6.574 51.3766 6.57 51.3766 6.566C51.3766 6.198 51.2266 5.924 50.9266 5.744C50.6266 5.56 50.1926 5.468 49.6246 5.468C49.0326 5.468 48.5726 5.572 48.2446 5.78C47.9166 5.984 47.7526 6.316 47.7526 6.776H46.7446C46.7446 6.3 46.8666 5.896 47.1106 5.564C47.3546 5.228 47.6926 4.972 48.1246 4.796C48.5606 4.62 49.0626 4.532 49.6306 4.532C50.1506 4.532 50.6186 4.612 51.0346 4.772C51.4546 4.928 51.7866 5.162 52.0306 5.474C52.2786 5.782 52.4026 6.164 52.4026 6.62C52.4026 6.704 52.4026 6.788 52.4026 6.872C52.4026 6.952 52.4026 7.034 52.4026 7.118V9.8C52.4026 9.94 52.4086 10.076 52.4206 10.208C52.4326 10.34 52.4526 10.456 52.4806 10.556C52.5166 10.676 52.5566 10.774 52.6006 10.85C52.6446 10.922 52.6806 10.972 52.7086 11H51.6826C51.6626 10.98 51.6326 10.934 51.5926 10.862C51.5526 10.786 51.5146 10.698 51.4786 10.598C51.4506 10.518 51.4286 10.418 51.4126 10.298C51.3966 10.174 51.3886 10.046 51.3886 9.914L51.5566 10.028C51.4326 10.244 51.2506 10.434 51.0106 10.598C50.7746 10.762 50.4886 10.89 50.1526 10.982C49.8166 11.074 49.4366 11.12 49.0126 11.12ZM49.1746 10.202C49.5866 10.202 49.9586 10.14 50.2906 10.016C50.6226 9.888 50.8866 9.7 51.0826 9.452C51.2786 9.204 51.3766 8.896 51.3766 8.528V7.262L51.6046 7.646C51.3486 7.746 51.0286 7.828 50.6446 7.892C50.2646 7.952 49.8666 8.002 49.4506 8.042C48.8466 8.098 48.3906 8.204 48.0826 8.36C47.7786 8.516 47.6266 8.778 47.6266 9.146C47.6266 9.494 47.7526 9.758 48.0046 9.938C48.2566 10.114 48.6466 10.202 49.1746 10.202ZM56.0833 11.096C55.8873 11.096 55.6953 11.074 55.5073 11.03C55.3193 10.986 55.1493 10.908 54.9973 10.796C54.8493 10.68 54.7313 10.518 54.6433 10.31C54.5553 10.098 54.5113 9.826 54.5113 9.494C54.5113 9.41 54.5113 9.324 54.5113 9.236C54.5113 9.144 54.5113 9.048 54.5113 8.948V5.528H52.9573V4.628H53.9533C54.0893 4.628 54.1953 4.624 54.2713 4.616C54.3473 4.604 54.4013 4.578 54.4333 4.538C54.4693 4.494 54.4913 4.428 54.4993 4.34C54.5073 4.248 54.5113 4.122 54.5113 3.962V2.516H55.5373V4.628H57.5293V5.528H55.5373V8.618C55.5373 8.706 55.5373 8.792 55.5373 8.876C55.5373 8.96 55.5373 9.038 55.5373 9.11C55.5373 9.45 55.5773 9.716 55.6573 9.908C55.7413 10.1 55.9273 10.196 56.2153 10.196C56.3313 10.196 56.4413 10.186 56.5453 10.166C56.6493 10.146 56.7273 10.126 56.7793 10.106V10.994C56.7113 11.018 56.6153 11.04 56.4913 11.06C56.3713 11.084 56.2353 11.096 56.0833 11.096ZM61.2898 11.12C60.6818 11.12 60.1298 10.988 59.6338 10.724C59.1378 10.456 58.7438 10.074 58.4518 9.578C58.1638 9.082 58.0198 8.492 58.0198 7.808C58.0198 7.124 58.1638 6.538 58.4518 6.05C58.7438 5.558 59.1378 5.182 59.6338 4.922C60.1298 4.662 60.6818 4.532 61.2898 4.532C61.7538 4.532 62.1678 4.604 62.5318 4.748C62.8958 4.888 63.2038 5.076 63.4558 5.312C63.7078 5.548 63.8998 5.808 64.0318 6.092C64.1678 6.372 64.2358 6.652 64.2358 6.932C64.2358 6.936 64.2358 6.942 64.2358 6.95C64.2358 6.958 64.2358 6.966 64.2358 6.974H63.2218C63.2218 6.954 63.2198 6.932 63.2158 6.908C63.2118 6.88 63.2078 6.852 63.2038 6.824C63.1718 6.556 63.0698 6.322 62.8978 6.122C62.7258 5.918 62.5018 5.758 62.2258 5.642C61.9498 5.526 61.6358 5.468 61.2838 5.468C60.8878 5.468 60.5198 5.554 60.1798 5.726C59.8438 5.894 59.5718 6.152 59.3638 6.5C59.1598 6.844 59.0578 7.28 59.0578 7.808C59.0578 8.332 59.1598 8.77 59.3638 9.122C59.5678 9.474 59.8378 9.74 60.1738 9.92C60.5138 10.096 60.8838 10.184 61.2838 10.184C61.7158 10.184 62.0718 10.116 62.3518 9.98C62.6318 9.844 62.8418 9.664 62.9818 9.44C63.1258 9.212 63.2058 8.968 63.2218 8.708H64.2358C64.2358 8.996 64.1718 9.284 64.0438 9.572C63.9158 9.856 63.7278 10.116 63.4798 10.352C63.2318 10.584 62.9238 10.77 62.5558 10.91C62.1918 11.05 61.7698 11.12 61.2898 11.12ZM70.0304 11V8.63C70.0304 8.518 70.0304 8.386 70.0304 8.234C70.0304 8.078 70.0304 7.922 70.0304 7.766C70.0304 7.606 70.0304 7.47 70.0304 7.358C70.0304 6.746 69.8984 6.284 69.6344 5.972C69.3744 5.66 68.9604 5.504 68.3924 5.504C68.0124 5.504 67.6784 5.578 67.3904 5.726C67.1064 5.874 66.8844 6.076 66.7244 6.332C66.5644 6.588 66.4844 6.878 66.4844 7.202L65.8364 7.004C65.8364 6.548 65.9544 6.134 66.1904 5.762C66.4304 5.386 66.7564 5.088 67.1684 4.868C67.5844 4.644 68.0544 4.532 68.5784 4.532C69.3424 4.532 69.9444 4.762 70.3844 5.222C70.8284 5.682 71.0504 6.318 71.0504 7.13C71.0504 7.342 71.0504 7.586 71.0504 7.862C71.0504 8.138 71.0504 8.428 71.0504 8.732V11H70.0304ZM65.4644 11V1.622H66.4844V11H65.4644ZM74.8998 11.12C74.5158 11.12 74.1598 11.08 73.8318 11C73.5078 10.916 73.2238 10.796 72.9798 10.64C72.7398 10.48 72.5518 10.284 72.4158 10.052C72.2838 9.82 72.2178 9.554 72.2178 9.254C72.2178 9.222 72.2178 9.19 72.2178 9.158C72.2178 9.122 72.2178 9.092 72.2178 9.068H73.2438C73.2438 9.092 73.2438 9.112 73.2438 9.128C73.2438 9.144 73.2438 9.168 73.2438 9.2C73.2438 9.524 73.3938 9.772 73.6938 9.944C73.9938 10.112 74.4038 10.196 74.9238 10.196C75.2438 10.196 75.5298 10.164 75.7818 10.1C76.0338 10.036 76.2318 9.938 76.3758 9.806C76.5238 9.674 76.5978 9.508 76.5978 9.308C76.5978 8.976 76.4418 8.74 76.1298 8.6C75.8218 8.456 75.3598 8.332 74.7438 8.228C74.4198 8.172 74.1118 8.1 73.8198 8.012C73.5278 7.92 73.2678 7.802 73.0398 7.658C72.8158 7.514 72.6378 7.336 72.5058 7.124C72.3778 6.908 72.3138 6.65 72.3138 6.35C72.3138 5.962 72.4278 5.634 72.6558 5.366C72.8878 5.094 73.1998 4.888 73.5918 4.748C73.9838 4.604 74.4198 4.532 74.8998 4.532C75.3638 4.532 75.7918 4.606 76.1838 4.754C76.5758 4.902 76.8898 5.118 77.1258 5.402C77.3658 5.682 77.4858 6.028 77.4858 6.44C77.4858 6.456 77.4858 6.476 77.4858 6.5C77.4858 6.52 77.4858 6.54 77.4858 6.56H76.4658C76.4658 6.54 76.4658 6.524 76.4658 6.512C76.4658 6.5 76.4658 6.486 76.4658 6.47C76.4658 6.238 76.3918 6.048 76.2438 5.9C76.0958 5.748 75.9038 5.636 75.6678 5.564C75.4318 5.488 75.1798 5.45 74.9118 5.45C74.6598 5.45 74.4118 5.478 74.1678 5.534C73.9238 5.586 73.7218 5.674 73.5618 5.798C73.4018 5.922 73.3218 6.092 73.3218 6.308C73.3218 6.524 73.3958 6.698 73.5438 6.83C73.6958 6.958 73.9078 7.064 74.1798 7.148C74.4558 7.228 74.7798 7.302 75.1518 7.37C75.4838 7.43 75.7978 7.506 76.0938 7.598C76.3898 7.686 76.6498 7.8 76.8738 7.94C77.1018 8.08 77.2798 8.258 77.4078 8.474C77.5398 8.686 77.6058 8.946 77.6058 9.254C77.6058 9.566 77.5338 9.838 77.3898 10.07C77.2498 10.302 77.0538 10.496 76.8018 10.652C76.5538 10.808 76.2658 10.924 75.9378 11C75.6138 11.08 75.2678 11.12 74.8998 11.12ZM78.8303 13.622V4.628H79.8503V13.622H78.8303ZM81.9443 11.12C81.4523 11.12 80.9923 11 80.5643 10.76C80.1363 10.516 79.7883 10.182 79.5203 9.758C79.2563 9.334 79.1243 8.85 79.1243 8.306C79.1243 8.294 79.1243 8.284 79.1243 8.276C79.1243 8.268 79.1243 8.258 79.1243 8.246L79.8563 8.228C79.8563 8.236 79.8563 8.246 79.8563 8.258C79.8563 8.266 79.8563 8.274 79.8563 8.282C79.8563 8.626 79.9463 8.94 80.1263 9.224C80.3103 9.508 80.5503 9.734 80.8463 9.902C81.1423 10.07 81.4603 10.154 81.8003 10.154C82.3643 10.154 82.8323 9.962 83.2043 9.578C83.5803 9.19 83.7683 8.6 83.7683 7.808C83.7683 7.012 83.5823 6.424 83.2103 6.044C82.8383 5.66 82.3683 5.468 81.8003 5.468C81.4603 5.468 81.1423 5.552 80.8463 5.72C80.5503 5.884 80.3103 6.106 80.1263 6.386C79.9463 6.666 79.8563 6.98 79.8563 7.328L79.1243 7.304C79.1243 6.756 79.2563 6.274 79.5203 5.858C79.7883 5.442 80.1363 5.118 80.5643 4.886C80.9923 4.65 81.4523 4.532 81.9443 4.532C82.4603 4.532 82.9363 4.66 83.3723 4.916C83.8083 5.168 84.1583 5.538 84.4223 6.026C84.6863 6.514 84.8183 7.108 84.8183 7.808C84.8183 8.52 84.6883 9.124 84.4283 9.62C84.1683 10.112 83.8203 10.486 83.3843 10.742C82.9483 10.994 82.4683 11.12 81.9443 11.12ZM89.0704 11.114C88.4304 11.114 87.8644 10.972 87.3724 10.688C86.8844 10.4 86.5004 10.008 86.2204 9.512C85.9444 9.012 85.8064 8.444 85.8064 7.808C85.8064 7.172 85.9444 6.608 86.2204 6.116C86.5004 5.624 86.8844 5.238 87.3724 4.958C87.8644 4.678 88.4304 4.538 89.0704 4.538C89.7104 4.538 90.2744 4.678 90.7624 4.958C91.2544 5.238 91.6384 5.624 91.9144 6.116C92.1944 6.608 92.3344 7.172 92.3344 7.808C92.3344 8.444 92.1944 9.012 91.9144 9.512C91.6384 10.008 91.2544 10.4 90.7624 10.688C90.2744 10.972 89.7104 11.114 89.0704 11.114ZM89.0704 10.178C89.5104 10.178 89.8984 10.08 90.2344 9.884C90.5704 9.688 90.8324 9.412 91.0204 9.056C91.2124 8.7 91.3084 8.284 91.3084 7.808C91.3084 7.332 91.2124 6.92 91.0204 6.572C90.8324 6.22 90.5704 5.95 90.2344 5.762C89.8984 5.57 89.5104 5.474 89.0704 5.474C88.6344 5.474 88.2464 5.57 87.9064 5.762C87.5704 5.95 87.3064 6.22 87.1144 6.572C86.9264 6.92 86.8324 7.332 86.8324 7.808C86.8324 8.284 86.9264 8.7 87.1144 9.056C87.3064 9.412 87.5704 9.688 87.9064 9.884C88.2464 10.08 88.6344 10.178 89.0704 10.178ZM95.9585 11.096C95.7625 11.096 95.5705 11.074 95.3825 11.03C95.1945 10.986 95.0245 10.908 94.8725 10.796C94.7245 10.68 94.6065 10.518 94.5185 10.31C94.4305 10.098 94.3865 9.826 94.3865 9.494C94.3865 9.41 94.3865 9.324 94.3865 9.236C94.3865 9.144 94.3865 9.048 94.3865 8.948V5.528H92.8325V4.628H93.8285C93.9645 4.628 94.0705 4.624 94.1465 4.616C94.2225 4.604 94.2765 4.578 94.3085 4.538C94.3445 4.494 94.3665 4.428 94.3745 4.34C94.3825 4.248 94.3865 4.122 94.3865 3.962V2.516H95.4125V4.628H97.4045V5.528H95.4125V8.618C95.4125 8.706 95.4125 8.792 95.4125 8.876C95.4125 8.96 95.4125 9.038 95.4125 9.11C95.4125 9.45 95.4525 9.716 95.5325 9.908C95.6165 10.1 95.8025 10.196 96.0905 10.196C96.2065 10.196 96.3165 10.186 96.4205 10.166C96.5245 10.146 96.6025 10.126 96.6545 10.106V10.994C96.5865 11.018 96.4905 11.04 96.3665 11.06C96.2465 11.084 96.1105 11.096 95.9585 11.096Z" fill="white"/>
</g>
<defs>
<filter id="filter0_d_273_58" x="-15.0625" y="-15.6021" width="47.3691" height="47.7236" filterUnits="userSpaceOnUse" color-interpolation-filters="sRGB">
<feFlood flood-opacity="0" result="BackgroundImageFix"/>
<feColorMatrix in="SourceAlpha" type="matrix" values="0 0 0 0 0 0 0 0 0 0 0 0 0 0 0 0 0 0 127 0" result="hardAlpha"/>
<feOffset dy="4"/>
<feGaussianBlur stdDeviation="10"/>
<feComposite in2="hardAlpha" operator="out"/>
<feColorMatrix type="matrix" values="0 0 0 0 0 0 0 0 0 0 0 0 0 0 0 0 0 0 0.25 0"/>
<feBlend mode="normal" in2="BackgroundImageFix" result="effect1_dropShadow_273_58"/>
<feBlend mode="normal" in="SourceGraphic" in2="effect1_dropShadow_273_58" result="shape"/>
</filter>
<filter id="filter1_d_273_58" x="-18.2881" y="-10.1396" width="47.3691" height="47.7417" filterUnits="userSpaceOnUse" color-interpolation-filters="sRGB">
<feFlood flood-opacity="0" result="BackgroundImageFix"/>
<feColorMatrix in="SourceAlpha" type="matrix" values="0 0 0 0 0 0 0 0 0 0 0 0 0 0 0 0 0 0 127 0" result="hardAlpha"/>
<feOffset dy="4"/>
<feGaussianBlur stdDeviation="10"/>
<feComposite in2="hardAlpha" operator="out"/>
<feColorMatrix type="matrix" values="0 0 0 0 0 0 0 0 0 0 0 0 0 0 0 0 0 0 0.25 0"/>
<feBlend mode="normal" in2="BackgroundImageFix" result="effect1_dropShadow_273_58"/>
<feBlend mode="normal" in="SourceGraphic" in2="effect1_dropShadow_273_58" result="shape"/>
</filter>
<linearGradient id="paint0_linear_273_58" x1="11.5434" y1="8.12146" x2="8.04222" y2="1.5715" gradientUnits="userSpaceOnUse">
<stop/>
<stop offset="0.494792" stop-color="white"/>
<stop offset="1" stop-color="white"/>
</linearGradient>
<linearGradient id="paint1_linear_273_58" x1="2.47518" y1="5.86045" x2="5.98909" y2="12.4189" gradientUnits="userSpaceOnUse">
<stop stop-color="#0C0C0C"/>
<stop offset="0.494792" stop-color="white"/>
<stop offset="1" stop-color="white"/>
</linearGradient>
<clipPath id="clip0_273_58">
<rect width="98" height="14" fill="white"/>
</clipPath>
</defs>
</svg>
