<svg width="40" height="40" viewBox="0 0 40 40" fill="none" xmlns="http://www.w3.org/2000/svg">
<g clip-path="url(#clip0_294_20)">
<g filter="url(#filter0_d_294_20)">
<path d="M35.1613 23.2054L26.7265 3.88432L24.8873 2.60933L22.731 1.92279L19.8137 1.13818L16.3891 2.60933L14.106 3.88432L22.731 23.2054H35.1613Z" fill="url(#paint0_linear_294_20)"/>
</g>
<g filter="url(#filter1_d_294_20)">
<path d="M4.89242 16.7429L13.3272 36.1092L15.1664 37.3872L17.3227 38.0754L20.24 38.8618L23.6646 37.3872L25.9478 36.1092L17.3227 16.7429H4.89242Z" fill="url(#paint1_linear_294_20)"/>
</g>
<path d="M13.6545 4.136L0.559859 23.0638L13.6545 23.2041L23.1204 4.136C23.785 2.1853 25.8644 3.32321 26.8211 4.136C22.7327 -3.3547 16.3399 1.01488 13.6545 4.136Z" fill="white"/>
<path d="M26.3455 35.864L39.4401 16.9362L26.3455 16.7959L16.8796 35.864C16.215 37.8147 14.1356 36.6768 13.1789 35.864C17.2673 43.3547 23.6601 38.9851 26.3455 35.864Z" fill="white"/>
</g>
<defs>
<filter id="filter0_d_294_20" x="-5.89404" y="-14.8618" width="61.0552" height="62.0674" filterUnits="userSpaceOnUse" color-interpolation-filters="sRGB">
<feFlood flood-opacity="0" result="BackgroundImageFix"/>
<feColorMatrix in="SourceAlpha" type="matrix" values="0 0 0 0 0 0 0 0 0 0 0 0 0 0 0 0 0 0 127 0" result="hardAlpha"/>
<feOffset dy="4"/>
<feGaussianBlur stdDeviation="10"/>
<feComposite in2="hardAlpha" operator="out"/>
<feColorMatrix type="matrix" values="0 0 0 0 0 0 0 0 0 0 0 0 0 0 0 0 0 0 0.25 0"/>
<feBlend mode="normal" in2="BackgroundImageFix" result="effect1_dropShadow_294_20"/>
<feBlend mode="normal" in="SourceGraphic" in2="effect1_dropShadow_294_20" result="shape"/>
</filter>
<filter id="filter1_d_294_20" x="-15.1074" y="0.743164" width="61.0552" height="62.1187" filterUnits="userSpaceOnUse" color-interpolation-filters="sRGB">
<feFlood flood-opacity="0" result="BackgroundImageFix"/>
<feColorMatrix in="SourceAlpha" type="matrix" values="0 0 0 0 0 0 0 0 0 0 0 0 0 0 0 0 0 0 127 0" result="hardAlpha"/>
<feOffset dy="4"/>
<feGaussianBlur stdDeviation="10"/>
<feComposite in2="hardAlpha" operator="out"/>
<feColorMatrix type="matrix" values="0 0 0 0 0 0 0 0 0 0 0 0 0 0 0 0 0 0 0.25 0"/>
<feBlend mode="normal" in2="BackgroundImageFix" result="effect1_dropShadow_294_20"/>
<feBlend mode="normal" in="SourceGraphic" in2="effect1_dropShadow_294_20" result="shape"/>
</filter>
<linearGradient id="paint0_linear_294_20" x1="32.9799" y1="23.2054" x2="22.9766" y2="4.49118" gradientUnits="userSpaceOnUse">
<stop/>
<stop offset="0.494792" stop-color="white"/>
<stop offset="1" stop-color="white"/>
</linearGradient>
<linearGradient id="paint1_linear_294_20" x1="7.07383" y1="16.7429" x2="17.1136" y2="35.4814" gradientUnits="userSpaceOnUse">
<stop stop-color="#0C0C0C"/>
<stop offset="0.494792" stop-color="white"/>
<stop offset="1" stop-color="white"/>
</linearGradient>
<clipPath id="clip0_294_20">
<rect width="40" height="40" fill="white"/>
</clipPath>
</defs>
</svg>
